<svg width="56" height="24" viewBox="0 0 56 24" fill="none" xmlns="http://www.w3.org/2000/svg">
<path d="M9.88477 8.27557C9.80901 7.60322 9.49651 7.08239 8.94727 6.71307C8.39802 6.33902 7.70674 6.15199 6.8734 6.15199C6.27681 6.15199 5.76071 6.24669 5.32511 6.43608C4.8895 6.62074 4.55096 6.87642 4.30948 7.20312C4.07274 7.52509 3.95437 7.89205 3.95437 8.30398C3.95437 8.64962 4.03486 8.94792 4.19585 9.19886C4.36157 9.44981 4.577 9.66051 4.84215 9.83097C5.11204 9.99669 5.40086 10.1364 5.70863 10.25C6.01639 10.3589 6.31232 10.4489 6.59641 10.5199L8.01687 10.8892C8.48088 11.0028 8.95674 11.1567 9.44442 11.3509C9.93211 11.545 10.3843 11.8007 10.801 12.1179C11.2176 12.4351 11.5538 12.8281 11.8095 13.2969C12.0699 13.7656 12.2001 14.3267 12.2001 14.9801C12.2001 15.804 11.987 16.5355 11.5609 17.1747C11.1395 17.8139 10.5263 18.3182 9.72141 18.6875C8.92122 19.0568 7.95295 19.2415 6.81658 19.2415C5.72757 19.2415 4.78533 19.0687 3.98988 18.723C3.19442 18.3774 2.57179 17.8873 2.12198 17.2528C1.67217 16.6136 1.42359 15.8561 1.37624 14.9801H3.57795C3.62056 15.5057 3.79102 15.9437 4.08931 16.294C4.39234 16.6397 4.77823 16.8977 5.24698 17.0682C5.72047 17.2339 6.23893 17.3168 6.80238 17.3168C7.42264 17.3168 7.97425 17.2197 8.45721 17.0256C8.9449 16.8267 9.32842 16.5521 9.60778 16.2017C9.88713 15.8466 10.0268 15.4323 10.0268 14.9588C10.0268 14.5279 9.90371 14.1752 9.65749 13.9006C9.41602 13.6259 9.08694 13.3987 8.67028 13.2188C8.25835 13.0388 7.79196 12.8802 7.27113 12.7429L5.55238 12.2741C4.38761 11.9569 3.46431 11.4905 2.78249 10.875C2.10541 10.2595 1.76687 9.44508 1.76687 8.43182C1.76687 7.59375 1.99414 6.86222 2.44869 6.23722C2.90323 5.61222 3.51876 5.12689 4.29528 4.78125C5.07179 4.43087 5.94774 4.25568 6.92312 4.25568C7.90797 4.25568 8.77681 4.4285 9.52965 4.77415C10.2872 5.11979 10.8838 5.59564 11.3194 6.2017C11.755 6.80303 11.9823 7.49432 12.0012 8.27557H9.88477ZM19.2473 19.2202C18.1915 19.2202 17.2824 18.9811 16.5201 18.5028C15.7625 18.0199 15.1801 17.3546 14.7729 16.5071C14.3657 15.6596 14.1621 14.6889 14.1621 13.5952C14.1621 12.4872 14.3704 11.5095 14.7871 10.6619C15.2038 9.80966 15.7909 9.14441 16.5485 8.66619C17.306 8.18797 18.1986 7.94886 19.226 7.94886C20.0546 7.94886 20.7933 8.10275 21.4419 8.41051C22.0906 8.71354 22.6138 9.13968 23.0115 9.68892C23.414 10.2382 23.6531 10.8797 23.7289 11.6136H21.6621C21.5485 11.1023 21.2881 10.6619 20.8809 10.2926C20.4784 9.9233 19.9386 9.73864 19.2615 9.73864C18.6697 9.73864 18.1512 9.89489 17.7061 10.2074C17.2658 10.5152 16.9225 10.9555 16.6763 11.5284C16.4301 12.0966 16.307 12.7689 16.307 13.5455C16.307 14.3409 16.4277 15.0275 16.6692 15.6051C16.9107 16.1828 17.2516 16.6302 17.6919 16.9474C18.137 17.2647 18.6602 17.4233 19.2615 17.4233C19.664 17.4233 20.0286 17.3499 20.3553 17.2031C20.6867 17.0516 20.9637 16.8362 21.1863 16.5568C21.4135 16.2775 21.5721 15.9413 21.6621 15.5483H23.7289C23.6531 16.2538 23.4235 16.8835 23.04 17.4375C22.6564 17.9915 22.1427 18.4271 21.4988 18.7443C20.8596 19.0616 20.1091 19.2202 19.2473 19.2202ZM30.595 19.2202C29.5723 19.2202 28.6797 18.9858 27.9174 18.517C27.1551 18.0483 26.5633 17.3925 26.1419 16.5497C25.7205 15.7069 25.5098 14.7221 25.5098 13.5952C25.5098 12.4635 25.7205 11.474 26.1419 10.6264C26.5633 9.77888 27.1551 9.12074 27.9174 8.65199C28.6797 8.18324 29.5723 7.94886 30.595 7.94886C31.6177 7.94886 32.5102 8.18324 33.2725 8.65199C34.0349 9.12074 34.6267 9.77888 35.0481 10.6264C35.4695 11.474 35.6802 12.4635 35.6802 13.5952C35.6802 14.7221 35.4695 15.7069 35.0481 16.5497C34.6267 17.3925 34.0349 18.0483 33.2725 18.517C32.5102 18.9858 31.6177 19.2202 30.595 19.2202ZM30.6021 17.4375C31.265 17.4375 31.8142 17.2623 32.2498 16.9119C32.6854 16.5616 33.0074 16.0952 33.2157 15.5128C33.4288 14.9304 33.5353 14.2888 33.5353 13.5881C33.5353 12.892 33.4288 12.2528 33.2157 11.6705C33.0074 11.0833 32.6854 10.6122 32.2498 10.2571C31.8142 9.90199 31.265 9.72443 30.6021 9.72443C29.9345 9.72443 29.3805 9.90199 28.9402 10.2571C28.5046 10.6122 28.1802 11.0833 27.9672 11.6705C27.7588 12.2528 27.6547 12.892 27.6547 13.5881C27.6547 14.2888 27.7588 14.9304 27.9672 15.5128C28.1802 16.0952 28.5046 16.5616 28.9402 16.9119C29.3805 17.2623 29.9345 17.4375 30.6021 17.4375ZM38.0506 19V8.09091H40.1032V9.82386H40.2168C40.4157 9.23674 40.766 8.77509 41.2679 8.43892C41.7746 8.09801 42.3475 7.92756 42.9867 7.92756C43.1193 7.92756 43.2755 7.93229 43.4554 7.94176C43.6401 7.95123 43.7845 7.96307 43.8887 7.97727V10.0085C43.8034 9.98485 43.6519 9.95881 43.4341 9.9304C43.2163 9.89725 42.9985 9.88068 42.7807 9.88068C42.2788 9.88068 41.8314 9.98722 41.4384 10.2003C41.0501 10.4086 40.7424 10.6998 40.5151 11.0739C40.2878 11.4432 40.1742 11.8646 40.1742 12.3381V19H38.0506ZM50.0375 19.2202C48.9627 19.2202 48.037 18.9905 47.2605 18.5312C46.4887 18.0672 45.8921 17.4162 45.4707 16.5781C45.054 15.7353 44.8457 14.7481 44.8457 13.6165C44.8457 12.4991 45.054 11.5142 45.4707 10.6619C45.8921 9.80966 46.4792 9.14441 47.2321 8.66619C47.9896 8.18797 48.8751 7.94886 49.8883 7.94886C50.5038 7.94886 51.1004 8.05066 51.6781 8.25426C52.2557 8.45786 52.7742 8.77746 53.2335 9.21307C53.6928 9.64867 54.055 10.2145 54.3201 10.9105C54.5853 11.6018 54.7179 12.4422 54.7179 13.4318V14.1847H46.046V12.5938H52.6369C52.6369 12.035 52.5233 11.5402 52.296 11.1094C52.0687 10.6738 51.7491 10.3305 51.3372 10.0795C50.93 9.8286 50.4518 9.70312 49.9025 9.70312C49.3059 9.70312 48.7851 9.84991 48.34 10.1435C47.8997 10.4323 47.5588 10.8111 47.3173 11.2798C47.0806 11.7438 46.9622 12.2481 46.9622 12.7926V14.0355C46.9622 14.7647 47.09 15.3849 47.3457 15.8963C47.6061 16.4077 47.9683 16.7983 48.4324 17.0682C48.8964 17.3333 49.4385 17.4659 50.0588 17.4659C50.4612 17.4659 50.8282 17.4091 51.1596 17.2955C51.4911 17.1771 51.7775 17.0019 52.019 16.7699C52.2605 16.5379 52.4451 16.2514 52.573 15.9105L54.5829 16.2727C54.4219 16.8646 54.1331 17.383 53.7164 17.8281C53.3045 18.2685 52.786 18.6117 52.161 18.858C51.5408 19.0994 50.8329 19.2202 50.0375 19.2202Z" fill="white"/>
</svg>
